<svg width="132" height="25" viewBox="0 0 132 25" fill="none" xmlns="http://www.w3.org/2000/svg">
	<g clip-path="url(#clip0_1002_17393)">
		<path d="M42.2522 5.40701C42.2522 5.40701 42.7217 5.23259 43.6019 5.23259C44.5409 5.23259 44.893 5.40701 44.893 5.40701V12.7907C44.893 13.721 45.4798 14.3024 46.6535 14.3024C47.2403 14.3024 47.9445 14.0698 48.414 13.5465V5.40701C48.414 5.40701 49.0008 5.23259 49.8224 5.23259C50.7027 5.23259 50.9961 5.40701 50.9961 5.40701V16.1047C50.9961 16.1047 50.7027 16.2791 49.8224 16.2791C48.8835 16.2791 48.414 16.1047 48.414 16.1047V15.5233C47.589 16.1882 46.5412 16.5203 45.4798 16.4535C43.4259 16.4535 42.2522 15.1163 42.2522 13.2558V5.40701ZM53.4021 1.33724C53.4021 1.33724 53.8716 1.16282 54.7518 1.16282C55.6321 1.16282 56.1016 1.33724 56.1016 1.33724V13.9535H60.6789C60.8549 14.3024 60.9136 14.7093 60.9136 15.1163C60.9136 15.5233 60.9136 15.8721 60.6789 16.2791H53.4021V1.33724ZM68.6599 0.988402C68.2491 0.407006 67.1341 -0.174389 66.3125 2.97076e-05L64.552 2.90701C64.9108 3.32306 65.4127 3.59238 65.9604 3.66282L68.6599 0.988402ZM64.376 9.70933H68.0731V9.12794C68.0731 7.96515 67.7796 7.15119 66.4299 7.15119C65.3736 7.15119 64.552 7.84887 64.376 9.76747V9.70933ZM64.376 11.6279C64.552 13.721 65.5496 14.3024 66.9581 14.3024C68.4252 14.3024 69.4228 13.721 69.4228 13.721C69.9417 14.2279 70.2371 14.9176 70.2443 15.6396C70.2443 15.6396 69.0707 16.4535 66.7233 16.4535C63.2023 16.4535 61.6765 14.4768 61.6765 10.6396C61.6765 6.68607 63.6131 5.00003 66.4886 5.00003C69.1294 5.00003 70.8312 6.33724 70.8312 9.36049C70.8312 10.6977 70.5965 11.5698 70.5965 11.5698L64.376 11.6279ZM78.6361 5.46515C78.6361 5.46515 79.223 5.29073 79.9272 5.29073C80.6901 5.29073 81.2769 5.52329 81.2769 5.52329L78.1667 10.407L81.6877 16.221C81.6877 16.221 81.1008 16.3954 80.2793 16.3954C79.399 16.3954 78.8122 16.2791 78.8122 16.2791L75.878 11.6279H75.2912V16.2791C75.2912 16.2791 74.7043 16.4535 74.0001 16.4535C73.1785 16.4535 72.6504 16.3372 72.6504 16.3372V0.697704C72.6504 0.697704 73.2372 0.581425 74.0001 0.581425C74.7043 0.581425 75.2912 0.697704 75.2912 0.697704V9.59305H75.9954L78.6361 5.46515ZM84.7979 13.0233C84.7979 14.1861 85.3848 14.6512 86.3237 14.6512C87.7908 14.6512 88.2603 13.314 88.2603 12.2093V11.6279L86.4997 11.4535C85.4434 11.4535 84.7392 11.9186 84.7392 13.0814L84.7979 13.0233ZM90.9597 9.12794V16.2791C90.9597 16.2791 90.6663 16.4535 89.9034 16.4535C89.3166 16.4535 88.7297 16.2791 88.7297 16.2791L88.4363 15.1163C87.8495 16.1628 86.7932 16.6861 85.2674 16.6861C83.2721 16.6861 81.9811 15.5233 81.9811 13.0814C81.9811 10.7558 83.5069 9.70933 86.089 9.70933C86.8519 9.70933 87.6147 9.70933 88.2016 9.82561V9.24422C88.2016 8.25584 87.8495 7.38375 86.3237 7.38375C84.9153 7.38375 83.5656 7.96515 83.5656 7.96515C83.5656 7.96515 83.2721 7.67445 82.9787 7.15119C82.744 6.5698 82.8027 5.9884 82.8027 5.9884C82.8027 5.9884 84.5045 5.23259 86.8519 5.23259C89.9034 5.23259 90.9597 6.51166 90.9597 9.12794ZM100.349 5.81398C100.333 6.26218 100.219 6.70165 100.017 7.1028C99.8142 7.50396 99.5274 7.85748 99.1754 8.13956C98.8502 7.85481 98.4355 7.69045 98.0018 7.67445C97.2976 7.67445 96.652 8.02329 96.1239 8.72096V16.3954C96.1239 16.3954 95.6544 16.5698 94.7742 16.5698C93.8352 16.5698 93.4831 16.3954 93.4831 16.3954V5.6977C93.4831 5.6977 93.8352 5.52329 94.7742 5.52329C95.6544 5.52329 96.1239 5.6977 96.1239 5.6977V6.86049C96.8868 5.87212 97.6497 5.29073 98.4712 5.29073C99.0581 5.40701 99.6449 5.52329 100.349 5.87212V5.81398ZM96.3586 1.74422L94.4807 0.581425C94.2251 0.670525 93.9898 0.808866 93.7883 0.988476C93.5869 1.16809 93.4233 1.38541 93.3071 1.62794L96.1239 3.95352H96.5934L99.3515 1.62794C99.2352 1.38541 99.0717 1.16809 98.8702 0.988476C98.6688 0.808866 98.4335 0.670525 98.1778 0.581425L96.3586 1.74422ZM103.107 9.88375H106.804V9.30235C106.804 8.13956 106.511 7.26747 105.161 7.26747C104.105 7.26747 103.283 8.02329 103.107 9.94189V9.88375ZM103.107 11.8024C103.283 13.8954 104.281 14.4768 105.689 14.4768C107.156 14.4768 108.154 13.8954 108.154 13.8954C108.654 14.3913 108.947 15.0555 108.976 15.7558C108.976 15.7558 107.802 16.6279 105.455 16.6279C101.934 16.6279 100.408 14.6512 100.408 10.814C100.408 6.86049 102.344 5.17445 105.22 5.17445C107.861 5.17445 109.562 6.51166 109.562 9.53491C109.562 10.8721 109.328 11.7442 109.328 11.7442L103.107 11.8024ZM112.849 16.4535C112.849 16.4535 112.438 16.5698 111.675 16.5698C110.736 16.5698 110.325 16.3954 110.325 16.3954V14.0698C110.325 14.0698 110.736 13.9535 111.616 13.9535C112.438 13.9535 112.79 14.1279 112.79 14.1279L112.849 16.4535ZM116.546 10.9884C116.546 13.314 117.367 14.4768 119.128 14.4768C120.302 14.4768 121.064 14.1279 121.064 14.1279C121.522 14.6415 121.772 15.3037 121.769 15.9884C121.769 15.9884 120.888 16.5698 118.6 16.5698C115.431 16.5698 113.905 14.6512 113.905 10.9303C113.905 7.20933 115.431 5.11631 118.6 5.11631C120.83 5.11631 121.651 5.6977 121.651 5.6977C121.651 6.2791 121.358 7.09305 120.888 7.44189C120.888 7.44189 120.126 7.26747 119.128 7.26747C117.25 7.26747 116.605 8.43026 116.605 10.7558L116.546 10.9884ZM130.806 14.0117C130.806 14.0117 130.923 14.4186 130.923 15.0582C130.923 15.7558 130.747 16.221 130.747 16.221H122.649C122.454 15.5169 122.454 14.7739 122.649 14.0698L127.93 7.32561H122.942C122.942 7.32561 122.825 6.86049 122.825 6.16282C122.825 5.58143 122.942 5.17445 122.942 5.17445H130.865C131.059 5.87852 131.059 6.62154 130.865 7.32561L125.583 14.0698L130.806 14.0117Z"
			  fill="#07AFBB"/>
		<path d="M2.69945 14.3023C2.69945 12.2977 3.50321 10.3753 4.9339 8.95786C6.3646 7.54043 8.30504 6.74413 10.3283 6.74413C12.3517 6.74413 14.2921 7.54043 15.7228 8.95786C17.1535 10.3753 17.9572 12.2977 17.9572 14.3023C17.9572 16.3068 17.1535 18.2293 15.7228 19.6467C14.2921 21.0641 12.3517 21.8604 10.3283 21.8604C8.30504 21.8604 6.3646 21.0641 4.9339 19.6467C3.50321 18.2293 2.69945 16.3068 2.69945 14.3023ZM35.7384 13.7209C35.0342 13.1395 34.3887 10.2325 34.0953 8.66273C33.5084 5.5232 32.9216 3.43018 31.1611 3.43018C29.4006 3.43018 28.8137 5.63948 27.8161 10.9883C27.5814 12.1511 27.2293 13.4883 27.0532 14.6511L26.7011 12.6162C26.349 9.99994 26.1143 8.54645 24.6472 8.54645C23.2388 8.54645 22.5932 10.1744 22.0064 11.686C21.8304 12.1511 21.6543 12.5581 21.4196 12.8488C21.4196 12.9651 20.9501 12.9651 20.598 12.9651C20.2712 10.509 19.0562 8.25375 17.1784 6.61788C15.3006 4.98202 12.8875 4.07662 10.387 4.06971C4.6947 4.06971 0 8.54645 0 14.2441C0 19.9418 4.6947 24.4767 10.3283 24.4767C15.6099 24.4767 19.8938 20.5813 20.598 15.6395C21.7717 15.6395 23.2388 15.4651 24.0017 14.0116C24.0017 13.8372 24.1777 13.6627 24.2364 13.4302C24.7059 16.5116 25.1167 19.1279 27.1706 19.1279C28.9311 19.1279 29.5179 16.9185 30.5742 11.5697C30.7503 10.4069 31.0437 9.12785 31.3371 7.96506L31.5719 9.12785C32.2761 12.6162 33.039 16.3372 35.6797 16.3372H39.7876C39.7876 16.3372 39.9636 15.9302 39.9636 14.9999C39.9636 14.0697 39.7876 13.6046 39.7876 13.6046L35.7384 13.7209Z"
			  fill="#07AFBB"/>
		<path d="M15.61 14.1279C15.61 13.1977 15.434 12.6744 15.434 12.6744H11.6195V8.89535C11.6195 8.89535 11.0327 8.72093 10.1524 8.72093C9.09611 8.72093 8.68532 8.89535 8.68532 8.89535V12.6744H4.87088C4.87088 12.6744 4.69482 13.2558 4.69482 14.1279C4.69482 15.1163 4.87088 15.5814 4.87088 15.5814H8.68532V19.3605C8.68532 19.3605 9.09611 19.5349 10.1524 19.5349C11.0914 19.5349 11.6195 19.3605 11.6195 19.3605V15.5814H15.434C15.434 15.5814 15.61 15.1163 15.61 14.1279V14.1279Z"
			  fill="#07AFBB"/>
	</g>
	<defs>
		<clipPath id="clip0_1002_17393">
			<rect width="131.452" height="25" fill="white"/>
		</clipPath>
	</defs>
</svg>
