<svg version="1.2" xmlns="http://www.w3.org/2000/svg" viewBox="0 0 132 25" width="132" height="25">
	<title>logoM-svg</title>
	<defs>
		<clipPath clipPathUnits="userSpaceOnUse" id="cp1">
			<path d="m0 0h131.45v25h-131.45z"/>
		</clipPath>
	</defs>
	<style>
		.s0 { fill: #2fbdac } 
	</style>
	<g id="Clip-Path" clip-path="url(#cp1)">
		<g id="Layer">
			<path id="Layer" fill-rule="evenodd" class="s0" d="m42.3 5.4c0 0 0.4-0.2 1.3-0.2 0.9 0 1.3 0.2 1.3 0.2v7.4c0 0.9 0.6 1.5 1.8 1.5 0.5 0 1.2-0.2 1.7-0.8v-8.1c0 0 0.6-0.2 1.4-0.2 0.9 0 1.2 0.2 1.2 0.2v10.7c0 0-0.3 0.2-1.2 0.2-0.9 0-1.4-0.2-1.4-0.2v-0.6c-0.8 0.7-1.9 1-2.9 1-2.1 0-3.2-1.4-3.2-3.2zm11.1-4.1c0 0 0.5-0.2 1.4-0.2 0.8 0 1.3 0.2 1.3 0.2v12.6h4.6c0.2 0.4 0.2 0.8 0.2 1.2 0 0.4 0 0.7-0.2 1.1h-7.3zm12.6 2.4c-0.6-0.1-1.1-0.4-1.4-0.8l1.7-2.9c0.8-0.2 1.9 0.4 2.4 1zm-1.6 7.9c0.2 2.1 1.1 2.7 2.6 2.7 1.4 0 2.4-0.6 2.4-0.6 0.5 0.5 0.8 1.2 0.8 2 0 0-1.1 0.8-3.5 0.8-3.5 0-5-2-5-5.8 0-4 1.9-5.7 4.8-5.7 2.6 0 4.3 1.4 4.3 4.4 0 1.3-0.2 2.2-0.2 2.2zm0-1.9q0 0 0 0zm3.7-0.1v-0.6c0-1.1-0.3-1.9-1.7-1.9-1 0-1.8 0.6-2 2.5zm10.6-4.2c0 0 0.6-0.2 1.3-0.2 0.7 0 1.3 0.2 1.3 0.2l-3.1 4.9 3.5 5.8c0 0-0.6 0.2-1.4 0.2-0.9 0-1.5-0.1-1.5-0.1l-2.9-4.7h-0.6v4.7c0 0-0.6 0.2-1.3 0.2-0.8 0-1.3-0.2-1.3-0.2v-15.6c0 0 0.6-0.1 1.3-0.1 0.7 0 1.3 0.1 1.3 0.1v8.9h0.7zm12.3 3.7v7.1c0 0-0.2 0.2-1 0.2-0.6 0-1.2-0.2-1.2-0.2l-0.3-1.2q-0.9 1.6-3.1 1.6c-2 0-3.3-1.1-3.3-3.6 0-2.3 1.5-3.4 4.1-3.4 0.7 0 1.5 0 2.1 0.2v-0.6c0-1-0.4-1.9-1.9-1.9-1.4 0-2.7 0.6-2.7 0.6 0 0-0.3-0.3-0.6-0.8-0.3-0.6-0.2-1.2-0.2-1.2 0 0 1.7-0.7 4-0.7 3.1 0 4.1 1.2 4.1 3.9zm-6.1 3.9c0 1.1 0.6 1.6 1.5 1.6 1.5 0 1.9-1.4 1.9-2.5v-0.5l-1.7-0.2c-1.1 0-1.8 0.4-1.8 1.6zm15.6-7.1q0 0 0 0 0-0.1 0-0.1zm-0.4 1.2q-0.3 0.6-0.8 1.1c-0.3-0.3-0.7-0.5-1.2-0.5q-1 0-1.8 1v7.7c0 0-0.5 0.2-1.4 0.2-0.9 0-1.3-0.2-1.3-0.2v-10.7c0 0 0.4-0.1 1.3-0.1 0.9 0 1.4 0.1 1.4 0.1v1.2c0.7-1 1.5-1.6 2.3-1.6 0.6 0.1 1.2 0.3 1.9 0.6q-0.1 0.6-0.4 1.2zm-1.8-6.5q0.4 0.1 0.7 0.4 0.3 0.3 0.5 0.7l-2.8 2.3h-0.4l-2.9-2.3q0.2-0.4 0.5-0.7 0.3-0.3 0.7-0.4l1.9 1.2zm4.9 11.2c0.2 2.1 1.2 2.7 2.6 2.7 1.5 0 2.5-0.6 2.5-0.6 0.5 0.5 0.8 1.1 0.8 1.8 0 0-1.2 0.9-3.5 0.9-3.6 0-5.1-2-5.1-5.8 0-3.9 2-5.6 4.8-5.6 2.7 0 4.4 1.3 4.4 4.3 0 1.4-0.3 2.2-0.3 2.2zm0-1.8q0-0.1 0-0.1zm3.7 0v-0.6c0-1.2-0.3-2.1-1.6-2.1-1.1 0-1.9 0.8-2.1 2.7zm6.1 6.5c0 0-0.4 0.1-1.2 0.1-0.9 0-1.3-0.1-1.3-0.1v-2.4c0 0 0.4-0.1 1.3-0.1 0.8 0 1.1 0.2 1.1 0.2zm3.7-5.5c0 2.4 0.8 3.5 2.6 3.5 1.2 0 1.9-0.3 1.9-0.3 0.5 0.5 0.8 1.2 0.7 1.8 0 0-0.8 0.6-3.1 0.6-3.2 0-4.7-1.9-4.7-5.6 0-3.7 1.5-5.8 4.7-5.8 2.2 0 3 0.5 3 0.5 0 0.6-0.3 1.4-0.7 1.8 0 0-0.8-0.2-1.8-0.2-1.9 0-2.5 1.2-2.5 3.5zm14.2 3c0 0 0.2 0.4 0.2 1.1 0 0.7-0.2 1.1-0.2 1.1h-8.1c-0.2-0.7-0.2-1.4 0-2.1l5.3-6.8h-5c0 0-0.1-0.4-0.1-1.1 0-0.6 0.1-1 0.1-1h7.9c0.2 0.7 0.2 1.4 0 2.1l-5.3 6.8z"/>
			<path id="Layer" fill-rule="evenodd" class="s0" d="m39.8 13.6c0 0 0.2 0.5 0.2 1.4 0 0.9-0.2 1.3-0.2 1.3h-4.1c-2.7 0-3.4-3.7-4.1-7.2l-0.3-1.1c-0.3 1.1-0.5 2.4-0.7 3.6-1.1 5.3-1.7 7.5-3.4 7.5-2.1 0-2.5-2.6-3-5.7 0 0.3-0.2 0.4-0.2 0.6-0.8 1.5-2.2 1.6-3.4 1.6-0.7 5-5 8.9-10.3 8.9-5.6 0-10.3-4.6-10.3-10.3 0-5.7 4.7-10.1 10.4-10.1 2.5 0 4.9 0.9 6.8 2.5 1.9 1.7 3.1 3.9 3.4 6.4 0.4 0 0.8 0 0.8-0.2 0.3-0.2 0.4-0.6 0.6-1.1 0.6-1.5 1.2-3.2 2.6-3.2 1.5 0 1.7 1.5 2.1 4.1l0.4 2.1c0.1-1.2 0.5-2.5 0.7-3.7 1-5.4 1.6-7.6 3.4-7.6 1.7 0 2.3 2.1 2.9 5.3 0.3 1.5 0.9 4.4 1.6 5zm-34.8 6.1c1.4 1.4 3.4 2.2 5.4 2.2 2 0 3.9-0.8 5.4-2.2 1.4-1.5 2.2-3.4 2.2-5.4 0-2-0.8-3.9-2.2-5.3-1.5-1.4-3.4-2.2-5.4-2.2-2 0-4 0.8-5.4 2.2-1.4 1.4-2.2 3.3-2.2 5.3 0 2 0.8 3.9 2.2 5.4z"/>
			<path id="Layer" class="s0" d="m15.6 14.1c0-0.9-0.2-1.4-0.2-1.4h-3.8v-3.8c0 0-0.6-0.2-1.4-0.2-1.1 0-1.5 0.2-1.5 0.2v3.8h-3.8c0 0-0.2 0.6-0.2 1.4 0 1 0.2 1.5 0.2 1.5h3.8v3.8c0 0 0.4 0.1 1.5 0.1 0.9 0 1.4-0.1 1.4-0.1v-3.8h3.8c0 0 0.2-0.5 0.2-1.5z"/>
		</g>
	</g>
</svg>